<svg width="30" height="30" viewBox="0 0 20 20" fill="none" xmlns="http://www.w3.org/2000/svg">
<path d="M10.8091 8.70909C10.9515 8.86257 11.0619 9.04294 11.1337 9.23964C11.2055 9.43633 11.2373 9.64539 11.2273 9.85454C11.2332 10.3977 11.0608 10.9279 10.7364 11.3636C10.6029 11.5688 10.4213 11.7381 10.2074 11.857C9.9935 11.9758 9.75376 12.0405 9.50909 12.0455C9.33114 12.0486 9.15616 11.9995 9.00587 11.9042C8.85558 11.8088 8.73658 11.6714 8.66364 11.5091C8.46131 11.1389 8.36092 10.7217 8.37273 10.3C8.35026 9.78674 8.4937 9.2799 8.78182 8.85454C8.89589 8.67804 9.0519 8.53253 9.23592 8.431C9.41993 8.32948 9.62622 8.2751 9.83637 8.27273C10.02 8.27371 10.2013 8.31304 10.3688 8.38818C10.5363 8.46332 10.6863 8.57263 10.8091 8.70909ZM20 10C20 11.9778 19.4135 13.9112 18.3147 15.5557C17.2159 17.2002 15.6541 18.4819 13.8268 19.2388C11.9996 19.9957 9.98891 20.1937 8.0491 19.8078C6.10929 19.422 4.32746 18.4696 2.92894 17.0711C1.53041 15.6725 0.578004 13.8907 0.192152 11.9509C-0.1937 10.0111 0.00433288 8.00043 0.761209 6.17316C1.51809 4.3459 2.79981 2.78412 4.4443 1.6853C6.08879 0.58649 8.02219 0 10 0C12.6522 0 15.1957 1.05357 17.0711 2.92893C18.9464 4.8043 20 7.34783 20 10ZM16.1455 9.09091C16.1528 8.35963 16.0013 7.63547 15.7015 6.96843C15.4017 6.30138 14.9608 5.70732 14.4091 5.22727C13.2225 4.15824 11.6691 3.58834 10.0727 3.63636C9.22112 3.62019 8.37472 3.7725 7.58217 4.08452C6.78962 4.39655 6.06656 4.86215 5.45455 5.45454C4.83274 6.03438 4.34044 6.73904 4.00987 7.52236C3.67931 8.30567 3.51796 9.14999 3.53637 10C3.52623 10.8304 3.68181 11.6545 3.994 12.4241C4.30619 13.1936 4.76873 13.8932 5.35455 14.4818C5.99926 15.1164 6.76803 15.6111 7.61275 15.9349C8.45746 16.2587 9.35992 16.4047 10.2636 16.3636C11.5346 16.3592 12.791 16.0931 13.9545 15.5818C14.1038 15.5212 14.223 15.404 14.286 15.2558C14.3491 15.1076 14.3508 14.9404 14.2909 14.7909C14.2298 14.6383 14.1127 14.5147 13.9636 14.4455C13.8861 14.4119 13.8026 14.3946 13.7182 14.3946C13.6338 14.3946 13.5502 14.4119 13.4727 14.4455C12.4613 14.8933 11.3697 15.1314 10.2636 15.1455C9.54323 15.1897 8.82176 15.0778 8.14863 14.8174C7.47549 14.5569 6.8666 14.154 6.36364 13.6364C5.45237 12.6471 4.95746 11.3448 4.98182 10C4.9653 9.31041 5.0871 8.6245 5.34005 7.98277C5.59299 7.34104 5.97195 6.75649 6.45455 6.26364C6.92337 5.77432 7.48859 5.38756 8.1145 5.12781C8.7404 4.86806 9.41338 4.74096 10.0909 4.75454C11.3283 4.72535 12.5306 5.16728 13.4545 5.99091C13.9001 6.38287 14.2547 6.86747 14.4934 7.4108C14.732 7.95413 14.8491 8.54305 14.8364 9.13636C14.8654 9.91044 14.6421 10.673 14.2 11.3091C14.0553 11.5626 13.8518 11.7775 13.6065 11.9358C13.3613 12.094 13.0815 12.1909 12.7909 12.2182C12.7174 12.224 12.6435 12.2135 12.5746 12.1874C12.5056 12.1614 12.4433 12.1204 12.392 12.0674C12.3407 12.0144 12.3018 11.9507 12.2781 11.8809C12.2543 11.8111 12.2463 11.7369 12.2545 11.6636C12.2545 11.4545 12.2545 11.2091 12.2545 10.9182L12.7364 7.05454H11.4182L11.2727 7.58182L11.0545 7.40909C10.687 7.09477 10.22 6.92084 9.73637 6.91818C9.36114 6.91669 8.99014 6.99728 8.64936 7.15433C8.30858 7.31137 8.00627 7.54105 7.76364 7.82727C7.19022 8.49564 6.89137 9.35646 6.92728 10.2364C6.88549 11.0753 7.14686 11.9014 7.66364 12.5636C7.86782 12.8329 8.13176 13.0511 8.43466 13.201C8.73757 13.3509 9.07114 13.4283 9.40909 13.4273C9.70096 13.4187 9.9872 13.3448 10.2468 13.2111C10.5063 13.0774 10.7327 12.8872 10.9091 12.6545L11.0636 12.4727L11.2 12.6727C11.3494 12.9024 11.5565 13.0888 11.8006 13.2133C12.0447 13.3377 12.3173 13.3959 12.5909 13.3818C13.0697 13.378 13.5412 13.2635 13.9685 13.0475C14.3959 12.8315 14.7675 12.5197 15.0545 12.1364C15.7793 11.2893 16.1676 10.2055 16.1455 9.09091Z" fill="#8B8F9E"/>
</svg>
