<svg width="30" height="30" viewBox="0 0 20 20" fill="none" xmlns="http://www.w3.org/2000/svg">
<path d="M1.90909 7.97082H0C0.0801053 6.46533 0.478131 4.99409 1.16772 3.65454C1.8573 2.31499 2.82271 1.1377 4 0.200638L5.33636 1.59599C4.32148 2.32913 3.48571 3.2838 2.89203 4.38805C2.29836 5.4923 1.96227 6.71733 1.90909 7.97082ZM16.0909 0.200638L14.7636 1.59599C15.7504 2.35075 16.5598 3.31372 17.1348 4.41685C17.7097 5.51998 18.0361 6.73633 18.0909 7.97994H20C19.9398 6.47845 19.5598 5.00731 18.8855 3.66547C18.2112 2.32362 17.2583 1.14219 16.0909 0.200638ZM16.1909 13.9535L18.0909 15.9508V16.9448H1.90909V15.9508L3.80909 13.9535V8.48153C3.78572 7.04998 4.24272 5.6521 5.10666 4.51249C5.97061 3.37288 7.19134 2.55769 8.57273 2.1979V1.49567C8.57238 1.10981 8.72069 0.738744 8.98667 0.460017C9.25265 0.18129 9.61572 0.0164694 10 0C10.3843 0.0164694 10.7473 0.18129 11.0133 0.460017C11.2793 0.738744 11.4276 1.10981 11.4273 1.49567V2.18878C12.8087 2.54857 14.0294 3.36376 14.8933 4.50337C15.7573 5.64298 16.2143 7.04086 16.1909 8.47241V13.9535ZM12.2727 8.48153C12.2924 7.85473 12.0648 7.24545 11.6392 6.78608C11.2136 6.32672 10.6246 6.05439 10 6.02827C9.37379 6.05438 8.78332 6.32797 8.3575 6.78932C7.93169 7.25067 7.70512 7.8623 7.72727 8.49065V12.4122H12.2727V8.48153ZM10 20C10.4822 20 10.9447 19.8078 11.2856 19.4658C11.6266 19.1237 11.8182 18.6598 11.8182 18.176H8.18182C8.18182 18.6598 8.37338 19.1237 8.71435 19.4658C9.05533 19.8078 9.51779 20 10 20Z" fill="#8B8F9E"/>
</svg>
