<svg width="30" height="30" viewBox="0 0 20 20" fill="none" xmlns="http://www.w3.org/2000/svg">
<path d="M16.6667 7.79167C16.6667 3.75 12.7083 0.833333 8.33333 0.833333C3.95833 0.833333 0 3.775 0 7.79167C0.00300534 9.22213 0.503891 10.6069 1.41667 11.7083C1.27003 13.2684 0.786689 14.7781 0 16.1333C1.92415 15.8206 3.79153 15.2253 5.54167 14.3667C11.9917 15.9333 16.6667 12 16.6667 7.79167ZM5 8.33333C4.83518 8.33333 4.67407 8.28446 4.53702 8.19289C4.39998 8.10132 4.29317 7.97117 4.2301 7.8189C4.16703 7.66663 4.15052 7.49907 4.18268 7.33742C4.21483 7.17577 4.2942 7.02729 4.41074 6.91074C4.52729 6.7942 4.67577 6.71483 4.83742 6.68268C4.99908 6.65052 5.16663 6.66703 5.3189 6.7301C5.47117 6.79317 5.60132 6.89998 5.69289 7.03702C5.78446 7.17406 5.83333 7.33518 5.83333 7.5C5.83333 7.72101 5.74554 7.93297 5.58926 8.08925C5.43297 8.24553 5.22101 8.33333 5 8.33333ZM8.33333 8.33333C8.16852 8.33333 8.0074 8.28446 7.87036 8.19289C7.73332 8.10132 7.62651 7.97117 7.56343 7.8189C7.50036 7.66663 7.48386 7.49907 7.51601 7.33742C7.54817 7.17577 7.62753 7.02729 7.74408 6.91074C7.86062 6.7942 8.00911 6.71483 8.17076 6.68268C8.33241 6.65052 8.49996 6.66703 8.65224 6.7301C8.80451 6.79317 8.93466 6.89998 9.02622 7.03702C9.11779 7.17406 9.16667 7.33518 9.16667 7.5C9.16667 7.72101 9.07887 7.93297 8.92259 8.08925C8.76631 8.24553 8.55435 8.33333 8.33333 8.33333ZM11.6667 8.33333C11.5018 8.33333 11.3407 8.28446 11.2037 8.19289C11.0667 8.10132 10.9598 7.97117 10.8968 7.8189C10.8337 7.66663 10.8172 7.49907 10.8493 7.33742C10.8815 7.17577 10.9609 7.02729 11.0774 6.91074C11.194 6.7942 11.3424 6.71483 11.5041 6.68268C11.6657 6.65052 11.8333 6.66703 11.9856 6.7301C12.1378 6.79317 12.268 6.89998 12.3596 7.03702C12.4511 7.17406 12.5 7.33518 12.5 7.5C12.5 7.72101 12.4122 7.93297 12.2559 8.08925C12.0996 8.24553 11.8877 8.33333 11.6667 8.33333ZM19.0667 16.2667C19.1656 17.2892 19.4839 18.2784 20 19.1667C18.741 18.9622 17.5193 18.5719 16.375 18.0083C13.6417 18.675 11.3167 17.825 10.0583 16.2583C10.5483 16.1937 11.0329 16.0935 11.5083 15.9583C13.0333 17.25 14.8417 17.1 16.5833 16.675C17.0094 16.9708 17.4789 17.1985 17.975 17.35C17.8475 16.8552 17.7997 16.3432 17.8333 15.8333C19.325 14.05 18.8417 12.4167 17.4417 11.3667C17.6408 10.9867 17.808 10.5909 17.9417 10.1833C18.4499 10.4784 18.8882 10.8799 19.2267 11.3603C19.5652 11.8406 19.7958 12.3885 19.9026 12.9664C20.0095 13.5442 19.9901 14.1384 19.8458 14.708C19.7015 15.2777 19.4357 15.8094 19.0667 16.2667Z" fill="#8B8F9E"/>
</svg>


