<svg width="30" height="30" viewBox="0 0 20 20" fill="none" xmlns="http://www.w3.org/2000/svg">
<path d="M14.9818 0H5C3.67299 0.00719695 2.40265 0.538784 1.466 1.47884C0.529353 2.41889 0.00238018 3.69115 0 5.01818V15.0182C0.00956743 16.3396 0.539998 17.604 1.47613 18.5367C2.41226 19.4694 3.67852 19.9952 5 20H15C16.327 19.9928 17.5974 19.4612 18.534 18.5212C19.4706 17.5811 19.9976 16.3088 20 14.9818V4.98182C19.988 3.65797 19.4543 2.39227 18.5148 1.45954C17.5753 0.526812 16.3057 0.00233994 14.9818 0ZM9.46364 4.10909C9.46364 3.61818 9.95455 3.79091 10.1909 3.76364C11.6538 3.84483 13.0331 4.47159 14.0564 5.52014C15.0797 6.5687 15.6727 7.96284 15.7182 9.42727C15.7182 9.71818 15.8091 10.1273 15.3818 10.1273C14.9545 10.1273 15.0818 9.7 15.0273 9.40909C14.6364 6.36364 13.2091 4.90909 10.0909 4.42727C9.84546 4.4 9.44545 4.44545 9.46364 4.10909ZM13.9182 9.56364C13.4455 9.62727 13.5364 9.21818 13.4909 8.94545C13.1727 7.06364 12.5091 6.36364 10.5909 5.97273C10.3 5.90909 9.85455 5.97273 9.93636 5.52727C10.0182 5.08182 10.4 5.25455 10.7 5.28182C11.6162 5.37735 12.4685 5.79557 13.1047 6.46173C13.7409 7.1279 14.1194 7.99858 14.1727 8.91818C14.1455 9.09091 14.2727 9.49091 13.9182 9.55455V9.56364ZM12.7273 8.57273C12.7273 8.82727 12.7273 9.06364 12.4091 9.09091C12.0909 9.11818 12.0818 8.95455 12.0455 8.74545C12.0373 8.40197 11.9015 8.07384 11.6645 7.82508C11.4275 7.57632 11.1063 7.42477 10.7636 7.4C10.5273 7.4 10.3 7.28182 10.4091 6.97273C10.5182 6.66364 10.6818 6.72727 10.8909 6.72727C11.3606 6.78193 11.7978 6.99416 12.1314 7.32932C12.4649 7.66449 12.6749 8.1028 12.7273 8.57273ZM15.7455 14.4273C15.5446 14.9225 15.2124 15.3536 14.7847 15.674C14.357 15.9944 13.8499 16.192 13.3182 16.2455C13.0957 16.2057 12.8768 16.1479 12.6636 16.0727C10.6196 15.2708 8.7598 14.062 7.19708 12.5196C5.63436 10.9772 4.4013 9.13337 3.57273 7.1C3.42183 6.80211 3.34193 6.47334 3.33928 6.13942C3.33664 5.8055 3.41132 5.4755 3.55748 5.17526C3.70363 4.87502 3.91731 4.61268 4.18176 4.40879C4.44621 4.2049 4.75427 4.06498 5.08182 4C5.33763 3.90917 5.61692 3.90917 5.87273 4C6.91824 4.76531 7.72015 5.81663 8.18182 7.02727C8.17679 7.23724 8.11273 7.44155 7.99697 7.6168C7.8812 7.79205 7.71843 7.93116 7.52727 8.01818C7.39544 8.09437 7.2807 8.19688 7.19021 8.31934C7.09973 8.4418 7.03542 8.58158 7.00131 8.72998C6.96719 8.87837 6.964 9.0322 6.99193 9.18188C7.01986 9.33156 7.07831 9.47389 7.16364 9.6C7.7746 10.9304 8.8704 11.9775 10.2273 12.5273C10.4435 12.6594 10.7031 12.7011 10.9498 12.6432C11.1965 12.5854 11.4105 12.4327 11.5455 12.2182C12.1455 11.3091 12.8909 11.3636 13.7 11.9182C14.1182 12.2091 14.5273 12.4727 14.9091 12.8273C15.4 13.2091 16.0636 13.5545 15.7455 14.4273Z" fill="#8B8F9E"/>
</svg>
