 <svg
      class="whatsapp"
      width="30"
      height="30"
      viewBox="0 0 20 20"
      fill="none"
      xmlns="http://www.w3.org/2000/svg"
    >
      <path
        d="M9.97253 0.000149191C8.13481 0.000237552 6.33285 0.509472 4.76555 1.47164C3.19826 2.43381 1.92657 3.8115 1.09087 5.45264C0.255162 7.09377 -0.11206 8.93453 0.0297347 10.7717C0.171529 12.6089 0.816826 14.3711 1.8944 15.8638L0.652304 19.5729L4.53271 18.3456C5.83232 19.2058 7.31479 19.749 8.86136 19.9315C10.4079 20.114 11.9756 19.9308 13.4389 19.3966C14.9022 18.8624 16.2204 17.992 17.2879 16.8552C18.3554 15.7183 19.1426 14.3466 19.5864 12.8499C20.0302 11.3532 20.1183 9.77311 19.8436 8.23613C19.569 6.69915 18.9391 5.24802 18.0046 3.99898C17.0701 2.74993 15.8569 1.73766 14.4621 1.04326C13.0673 0.348863 11.5297 -0.00837944 9.97253 0.000149191V0.000149191ZM15.775 14.1183C15.5727 14.4846 15.2924 14.8017 14.9538 15.0468C14.6153 15.2919 14.227 15.4592 13.8167 15.5365C13.2999 15.6456 12.6199 15.7365 10.3261 14.782C8.30816 13.7897 6.59478 12.2695 5.36681 10.382C4.68583 9.51358 4.27299 8.46446 4.17912 7.36379C4.16588 6.90998 4.24964 6.45858 4.42478 6.03993C4.59993 5.62127 4.86239 5.24504 5.19455 4.93651C5.47086 4.67517 5.83937 4.53456 6.21905 4.5456H6.55451C6.84463 4.5456 6.98969 4.5456 7.18915 5.0456L8.07766 7.27288C8.12774 7.35201 8.15801 7.4421 8.1659 7.53548C8.1738 7.62887 8.15907 7.72279 8.12299 7.80924C8.04261 7.98205 7.93208 8.13907 7.7966 8.27288C7.65154 8.43651 7.51554 8.57288 7.37048 8.75469C7.22542 8.93651 7.08036 9.08197 7.25262 9.37288C7.68668 10.1229 8.2307 10.8032 8.86643 11.3911C9.55056 12.0134 10.3436 12.5035 11.2056 12.8365C11.321 12.8905 11.4498 12.909 11.5756 12.8896C11.7015 12.8701 11.8188 12.8137 11.9127 12.7274C12.1303 12.482 12.4114 12.082 12.6924 11.6911C12.7628 11.5713 12.8755 11.4824 13.0081 11.442C13.1408 11.4016 13.2837 11.4126 13.4087 11.4729C13.6716 11.5638 15.095 12.2729 15.3942 12.382C15.6934 12.4911 15.8747 12.6001 15.9473 12.7274C16.0286 13.1979 15.9686 13.6821 15.775 14.1183V14.1183Z"
        fill="#8B8F9E"
      />
    </svg>